inDegrees=yes
name=IK-live
DataType=double
version=3
OpenSimVersion=4.1
endheader
time	pelvis_tilt	pelvis_list	pelvis_rotation	pelvis_tx	pelvis_ty	pelvis_tz	hip_flexion_r	hip_adduction_r	hip_rotation_r	knee_angle_r	ankle_angle_r	subtalar_angle_r	mtp_angle_r	hip_flexion_l	hip_adduction_l	hip_rotation_l	knee_angle_l	ankle_angle_l	subtalar_angle_l	mtp_angle_l	lumbar_extension	lumbar_bending	lumbar_rotation	neck_flex	neck_latbend	neck_rot	arm_flex_r	arm_add_r	arm_rot_r	elbow_flex_r	pro_sup_r	wrist_flex_r	wrist_dev_r	arm_flex_l	arm_add_l	arm_rot_l	elbow_flex_l	pro_sup_l	wrist_flex_l	wrist_dev_l
0	-4.710597895160608	14.43078300828863	-245.990936960056	0.2341366603171506	0.04326292228651554	-1.326684523481465	-22.57117169827992	-1.591976316804377	-3.241458145969817	5.899560354604904	2.451982624139334	1.987972377786656	0	-24.74788768789517	-3.395140484746916	-11.58000132048591	9.793848132074926	-0.4439473045988533	4.250290820099795	0	-21.37711699760957	1.659277491615732	3.206407148933037	0	0	0	0.7803051835308646	-15.17650209319625	33.31126415726009	7.009775335601905	24.87442819902891	0	0.01252130249791644	5.871273685918807	-13.22979644441567	43.89868882648739	6.824486858577458	33.48024314371763	0	0.01252130249791644
3.7365979	-5.924874790022775	6.98236525110678	-251.3504263898679	0.2341366603171506	0.04326292228651554	-1.326684523481465	-22.57117169827992	-1.591976316804377	-3.241458145969817	5.899560354604904	2.451982624139334	1.987972377786656	0	-24.74788768789517	-3.395140484746916	-11.58000132048591	9.793848132074926	-0.4439473045988533	4.250290820099795	0	-21.37711699760957	1.659277491615732	3.206407148933037	0	0	0	0.780618559396634	-15.17650072152704	33.31085726276095	7.015072378762707	24.87546982756945	0	0.01299506170448944	5.871558942113171	-13.22981020522023	43.89808274956199	6.829918349710086	33.48075625385005	0	0.01299506170448944
3.887488	-5.831752606647961	6.833853185647005	-251.1306362933842	0.2341366603171506	0.04326292228651554	-1.326684523481465	-22.57117169827992	-1.591976316804377	-3.241458145969817	5.899560354604904	2.451982624139334	1.987972377786656	0	-24.74788768789517	-3.395140484746916	-11.58000132048591	9.793848132074926	-0.4439473045988533	4.250290820099795	0	-21.37711699760957	1.659277491615732	3.206407148933037	0	0	0	0.7806235631372648	-15.17650069959155	33.31085074046566	7.015160527136404	24.87548669793143	0	0.01300277028995603	5.871563496049016	-13.22981042528097	43.89807302302578	6.83000882446881	33.48076454211325	0	0.01300277028995603
4.0505293	-5.610164616803643	6.733168633744573	-250.397572533967	0.2341366603171506	0.04326292228651554	-1.326684523481465	-22.57117169827992	-1.591976316804377	-3.241458145969817	5.899560354604904	2.451982624139334	1.987972377786656	0	-24.74788768789517	-3.395140484746916	-11.58000132048591	9.793848132074926	-0.4439473045988533	4.250290820099795	0	-21.37711699760957	1.659277491615732	3.206407148933037	0	0	0	0.7806131870264232	-15.17650074501587	33.31086422481586	7.014978295179106	24.87545196422791	0	0.01298691926661955	5.871554051019706	-13.22980996957679	43.89809311856539	6.829821692290285	33.48074746637937	0	0.01298691926661955
4.2142985	-1.977353661787048	3.73840574536107	-247.3367731940837	0.2341366603171506	0.04326292228651554	-1.326684523481465	-22.57117169827992	-1.591976316804377	-3.241458145969817	5.899560354604904	2.451982624139334	1.987972377786656	0	-24.74788768789517	-3.395140484746916	-11.58000132048591	9.793848132074926	-0.4439473045988533	4.250290820099795	0	-21.37711699760957	1.659277491615732	3.206407148933037	0	0	0	0.7804347536340472	-15.17650152701877	33.31109683867142	7.01164642163941	24.87484610311221	0	0.01270899635145498	5.871391649215764	-13.22980212438378	43.89844017870642	6.826392886702885	33.48045059115353	0	0.01270899635145498
4.374303	-5.950749577441002	-0.821960338790872	-240.6588220935397	0.2341366603171506	0.04326292228651554	-1.326684523481465	-22.57117169827992	-1.591976316804377	-3.241458145969817	5.899560354604904	2.451982624139334	1.987972377786656	0	-24.74788768789517	-3.395140484746916	-11.58000132048591	9.793848132074926	-0.4439473045988533	4.250290820099795	0	-21.37711699760957	1.659277491615732	3.206407148933037	0	0	0	0.7810647217384828	-15.17649876560536	33.31027562161401	7.022983550136201	24.87697593868975	0	0.01368365470631664	5.871964998098621	-13.22982982737665	43.89721528476068	6.83804026023731	33.48149593003459	0	0.01368365470631664
4.5261766	-8.363109568658773	-13.63384696494638	-245.1778845716582	0.2341366603171506	0.04326292228651554	-1.326684523481465	-22.57117169827992	-1.591976316804377	-3.241458145969817	5.899560354604904	2.451982624139334	1.987972377786656	0	-24.74788768789517	-3.395140484746916	-11.58000132048591	9.793848132074926	-0.4439473045988533	4.250290820099795	0	-21.37711699760957	1.659277491615732	3.206407148933037	0	0	0	0.7847470459204005	-15.17648264105757	33.30548718646401	7.088411152318185	24.88932804839937	0	0.0193233351038443	5.875316770136895	-13.22999159153211	43.89007778697481	6.905263459560593	33.48756568223552	0	0.0193233351038443
4.6869929	-15.14481930120961	-24.27002348592782	-251.541654525083	0.2341366603171506	0.04326292228651554	-1.326684523481465	-22.57117169827992	-1.591976316804377	-3.241458145969817	5.899560354604904	2.451982624139334	1.987972377786656	0	-24.74788768789517	-3.395140484746916	-11.58000132048591	9.793848132074926	-0.4439473045988533	4.250290820099795	0	-21.37711699760957	1.659277491615732	3.206407148933037	0	0	0	0.7849364815554051	-15.17648179333997	33.30522757870869	7.093310435219431	24.89007964023903	0	0.01968230549605661	5.875488751287631	-13.23000009619345	43.88968514461767	6.910325336826384	33.48792509509806	0	0.01968230549605661
4.8389617	-22.36311658416913	-38.16704524631838	-251.161300214702	0.2341366603171506	0.04326292228651554	-1.326684523481465	-22.57117169827992	-1.591976316804377	-3.241458145969817	5.899560354604904	2.451982624139334	1.987972377786656	0	-24.74788768789517	-3.395140484746916	-11.58000132048591	9.793848132074926	-0.4439473045988533	4.250290820099795	0	-21.37711699760957	1.659277491615732	3.206407148933037	0	0	0	0.7852912536760279	-15.17648021497039	33.30474789821025	7.102063871389309	24.89143478932683	0	0.02032399911842566	5.875811060124276	-13.23001593096121	43.88896210400412	6.919376020600836	33.4885762579089	0	0.02032399911842566
4.9998945	-30.12212150585605	-52.86701036959526	-251.6238043246274	0.2341366603171506	0.04326292228651554	-1.326684523481465	-22.57117169827992	-1.591976316804377	-3.241458145969817	5.899560354604904	2.451982624139334	1.987972377786656	0	-24.74788768789517	-3.395140484746916	-11.58000132048591	9.793848132074926	-0.4439473045988533	4.250290820099795	0	-21.37711699760957	1.659277491615732	3.206407148933037	0	0	0	0.7872105194196531	-15.17647177777601	33.30222774992086	7.139280756515681	24.89809508110824	0	0.02339675815070189	5.877557236942199	-13.23010057470071	43.88519491353262	6.957676696764456	33.49182932946171	0	0.02339675815070189
5.1517791	-31.2301109817262	-53.6220988860046	-251.4577460114142	0.2341366603171506	0.04326292228651554	-1.326684523481465	-22.57117169827992	-1.591976316804377	-3.241458145969817	5.899560354604904	2.451982624139334	1.987972377786656	0	-24.74788768789517	-3.395140484746916	-11.58000132048591	9.793848132074926	-0.4439473045988533	4.250290820099795	0	-21.37711699760957	1.659277491615732	3.206407148933037	0	0	0	0.7866804808746489	-15.17647410108898	33.3029187706838	7.129623878255116	24.89629986492354	0	0.02257443761968854	5.877074832380859	-13.23007726680863	43.88622574179202	6.947750558189879	33.49094875788654	0	0.02257443761968854
5.3136156	-29.97519374850019	-51.82304467778195	-249.7407259732564	0.2341366603171506	0.04326292228651554	-1.326684523481465	-22.57117169827992	-1.591976316804377	-3.241458145969817	5.899560354604904	2.451982624139334	1.987972377786656	0	-24.74788768789517	-3.395140484746916	-11.58000132048591	9.793848132074926	-0.4439473045988533	4.250290820099795	0	-21.37711699760957	1.659277491615732	3.206407148933037	0	0	0	0.7872195400407763	-15.17647173995187	33.30221722777215	7.139311449514397	24.89811503365103	0	0.02340448612352308	5.87756548959281	-13.23010095413892	43.88517973523562	6.957706119757255	33.49183999064314	0	0.02340448612352308
5.4745964	-26.80139395095804	-38.63728979974666	-248.4443909652607	0.2341366603171506	0.04326292228651554	-1.326684523481465	-22.57117169827992	-1.591976316804377	-3.241458145969817	5.899560354604904	2.451982624139334	1.987972377786656	0	-24.74788768789517	-3.395140484746916	-11.58000132048591	9.793848132074926	-0.4439473045988533	4.250290820099795	0	-21.37711699760957	1.659277491615732	3.206407148933037	0	0	0	0.7857855148596269	-15.17647804747601	33.30410273424815	7.111218511957038	24.89311683999902	0	0.02109568341864617	5.876260878313266	-13.23003767566603	43.88799930034436	6.928790470402801	33.48940051666204	0	0.02109568341864617
5.6264891	-22.59208750808963	-25.57160864260339	-246.7280796684801	0.2341366603171506	0.04326292228651554	-1.326684523481465	-22.57117169827992	-1.591976316804377	-3.241458145969817	5.899560354604904	2.451982624139334	1.987972377786656	0	-24.74788768789517	-3.395140484746916	-11.58000132048591	9.793848132074926	-0.4439473045988533	4.250290820099795	0	-21.37711699760957	1.659277491615732	3.206407148933037	0	0	0	0.7853465192667055	-15.1764799923621	33.30469031412442	7.101069124031993	24.89149253665771	0	0.02033288765699939	5.875861851883353	-13.23001816396939	43.88888252119179	6.918303969124475	33.48861611770406	0	0.02033288765699939
5.7873195	-12.07112708367268	-5.308381874267328	-242.80725163226	0.2341366603171506	0.04326292228651554	-1.326684523481465	-22.57117169827992	-1.591976316804377	-3.241458145969817	5.899560354604904	2.451982624139334	1.987972377786656	0	-24.74788768789517	-3.395140484746916	-11.58000132048591	9.793848132074926	-0.4439473045988533	4.250290820099795	0	-21.37711699760957	1.659277491615732	3.206407148933037	0	0	0	0.7836710236183164	-15.17648735686135	33.30688931837366	7.06893690643204	24.88569418080153	0	0.0176610873399152	5.874337441950583	-13.22994428175335	43.89216897938302	6.885246165428457	33.4857821083486	0	0.0176610873399152
